<svg width="32" height="32" viewBox="0 0 32 32" fill="none" xmlns="http://www.w3.org/2000/svg">
<circle cx="16" cy="16" r="16" fill="white"/>
<g clip-path="url(#clip0_301_3102)">
<path d="M20.9864 12.723C20.6361 12.5229 20.1858 12.5229 19.7855 12.723L16.9835 14.3742L15.0822 15.4249L12.3302 17.0761C11.98 17.2762 11.5297 17.2762 11.1294 17.0761L8.97785 15.7752C8.6276 15.575 8.37742 15.1747 8.37742 14.7244V12.2226C8.37742 11.8224 8.57757 11.4221 8.97785 11.1719L11.1294 9.92101C11.4796 9.72086 11.9299 9.72086 12.3302 9.92101L14.4818 11.2219C14.832 11.4221 15.0822 11.8224 15.0822 12.2727V13.9238L16.9835 12.8231V11.1219C16.9835 10.7216 16.7834 10.3213 16.3831 10.0711L12.3803 7.71944C12.03 7.5193 11.5797 7.5193 11.1794 7.71944L7.0765 10.1211C6.67622 10.3213 6.47607 10.7216 6.47607 11.1219V15.8252C6.47607 16.2255 6.67622 16.6258 7.0765 16.8759L11.1294 19.2276C11.4796 19.4278 11.9299 19.4278 12.3302 19.2276L15.0822 17.6265L16.9835 16.5257L19.7355 14.9246C20.0857 14.7244 20.5361 14.7244 20.9363 14.9246L23.0879 16.1754C23.4381 16.3756 23.6883 16.7759 23.6883 17.2262V19.728C23.6883 20.1283 23.4882 20.5285 23.0879 20.7787L20.9864 22.0296C20.6361 22.2297 20.1858 22.2297 19.7855 22.0296L17.634 20.7787C17.2837 20.5786 17.0336 20.1783 17.0336 19.728V18.1268L15.1322 19.2276V20.8788C15.1322 21.2791 15.3324 21.6794 15.7326 21.9295L19.7855 24.2812C20.1358 24.4813 20.5861 24.4813 20.9864 24.2812L25.0393 21.9295C25.3895 21.7294 25.6397 21.3291 25.6397 20.8788V16.1254C25.6397 15.7251 25.4395 15.3248 25.0393 15.0747L20.9864 12.723Z" fill="#8247E5"/>
</g>
<defs>
<clipPath id="clip0_301_3102">
<rect width="19.2136" height="16.7619" fill="white" transform="translate(6.47607 7.61914)"/>
</clipPath>
</defs>
</svg>
